<?xml version="1.0" encoding="utf-8"?>
<!-- Generator: Adobe Illustrator 25.2.1, SVG Export Plug-In . SVG Version: 6.00 Build 0)  -->
<svg version="1.1" id="Layer_1" xmlns="http://www.w3.org/2000/svg" xmlns:xlink="http://www.w3.org/1999/xlink" x="0px" y="0px"
	 viewBox="0 0 192 189" style="enable-background:new 0 0 192 189;" xml:space="preserve">
<path d="M96,0C43,0,0,43,0,96c0,45,31,82.6,72.7,93c-0.4-1.3-0.7-2.8-0.7-4.7V168c-3.9,0-10.4,0-12.1,0c-6.6,0-12.4-2.8-15.2-8.1
	c-3.1-5.8-3.7-14.8-11.5-20.2c-2.3-1.8-0.6-3.9,2.1-3.6c4.9,1.4,9,4.8,12.8,9.8c3.8,5,5.6,6.2,12.8,6.2c3.5,0,8.6-0.2,13.5-1
	c2.6-6.7,7.2-12.8,12.7-15.7c-32-3.3-47.2-19.2-47.2-40.8c0-9.3,4-18.3,10.7-25.9c-2.2-7.5-5-22.9,0.8-28.7
	c14.4,0,23.1,9.3,25.2,11.8c7.2-2.5,15-3.8,23.3-3.8c8.3,0,16.2,1.4,23.4,3.9c2.1-2.5,10.8-11.9,25.2-11.9c5.9,5.8,3,21.2,0.8,28.8
	C156,76.3,160,85.3,160,94.6c0,21.6-15.2,37.5-47.2,40.8c8.8,4.6,15.2,17.5,15.2,27.2v21.9c0,0.8-0.2,1.4-0.3,2.1
	C165.1,173.4,192,137.9,192,96C192,43,149,0,96,0z"/>
</svg>
