<?xml version="1.0" encoding="utf-8"?>
<!-- Generator: Adobe Illustrator 25.2.1, SVG Export Plug-In . SVG Version: 6.00 Build 0)  -->
<svg version="1.1" id="Layer_1" xmlns="http://www.w3.org/2000/svg" xmlns:xlink="http://www.w3.org/1999/xlink" x="0px" y="0px"
	 viewBox="0 0 794.7 491" style="enable-background:new 0 0 794.7 491;" xml:space="preserve">
<style type="text/css">
	.st0{fill:#EDF1F9;}
	.st1{fill:#EE826C;}
</style>
<g>
	<g>
		<path class="st0" d="M29.7,423.4c-8.9,0-16.1-2.8-21.5-8.4C2.7,409.4,0,402.5,0,394.2V117.7c0-8.3,2.9-15.2,8.6-20.8
			c5.7-5.6,13.1-8.4,22-8.4s16,2.8,21.3,8.4c5.3,5.6,7.9,12.5,7.9,20.8v276.5c0,8.3-2.7,15.2-8.1,20.8
			C46.3,420.6,38.9,423.4,29.7,423.4z M236.4,86.1c7.7,0,13.9,3.1,18.9,9.3c4.9,6.2,7.4,12.5,7.4,18.9c0,6.7-2.9,12.9-8.6,18.6
			L53.6,324.8l-2.4-68.4L212.9,97.1C220.2,89.7,228.1,86.1,236.4,86.1z M230.6,423.4c-8.9,0-16.1-3.7-21.5-11L98.6,266.9l43.5-44.5
			l114.4,151.2c4.5,6.1,6.7,12.6,6.7,19.6c0,8.9-3.3,16.2-10,21.8C246.4,420.6,238.9,423.4,230.6,423.4z"/>
		<path class="st0" d="M670,402.6c0,8.3-2.8,15.2-8.4,20.8c-5.6,5.6-12.5,8.4-20.8,8.4c-8,0-14.7-2.8-20.1-8.4
			c-5.4-5.6-8.1-12.5-8.1-20.8V106.9c0-8.3,2.8-15.2,8.4-20.8c5.6-5.6,12.5-8.4,20.8-8.4s15.1,2.8,20.3,8.4
			c5.3,5.6,7.9,12.5,7.9,20.8V402.6z"/>
		<path class="st0" d="M764.1,144.7c-10.8,0-18.5-1.7-23-5.3c-4.5-3.5-6.7-9.7-6.7-18.6v-9.1c0-9.2,2.5-15.6,7.4-18.9
			c4.9-3.3,12.5-5,22.7-5c11.2,0,19,1.8,23.4,5.3c4.5,3.5,6.7,9.7,6.7,18.7v9.1c0,9.2-2.4,15.5-7.2,18.9
			C782.7,143,774.9,144.7,764.1,144.7z M793.3,402.6c0,8.3-2.7,15.2-8.1,20.8c-5.4,5.6-12.3,8.4-20.6,8.4s-15.1-2.8-20.6-8.4
			c-5.4-5.6-8.1-12.5-8.1-20.8V205c0-8.3,2.7-15.2,8.1-20.8c5.4-5.6,12.3-8.4,20.6-8.4s15.1,2.8,20.6,8.4c5.4,5.6,8.1,12.5,8.1,20.8
			V402.6z"/>
	</g>
	<g>
		<path class="st1" d="M347.2,76.3c-1.1,1.6-2,3.3-2.9,5.2l-18.8,41.3l-25.3,54c-1,2-1.6,4.1-2.1,6.1l-4.2,9.1
			c-14,30.8-16.7,59-7.9,84.7c3.9,11.4,10,21.6,18.5,30.9l36.4-77.8c1.3-4.5,3-9.1,5.3-14l32.3-70.8l25.3-54
			c8.3-17.6,18.3-28.9,30.1-33.7c11.8-4.9,25.6-3.6,41.5,3.8c15.6,7.3,25.3,17,29.1,29.2c3.8,12.2,1.6,27.1-6.7,44.7l-3.9,8.2
			c-1.1,1.6-2,3.2-2.8,5.1l-18.3,40.2l-26.5,56.5c-1,2.1-1.7,4.1-2.2,6.2l-3.5,7.6c-2.3,5.1-4.8,9.6-7.5,13.7l-36.4,77.7
			c13.1,0.6,25.4-1.5,37-6.1c25.3-10.2,45-30.6,59-61.4l31.1-68.3l25.8-55.1c14.3-30.6,17.2-58.8,8.7-84.7
			c-8.5-25.8-28.8-46.2-60.9-61.2c-32.1-15-60.8-17.5-86.2-7.6c-25.4,9.9-45.3,30.2-59.6,60.8L347.2,76.3z"/>
		<path class="st0" d="M553.9,275.6c7.5,3.5,12.5,8.9,15.1,16.3c2.5,7.4,2.1,14.8-1.5,22.3L516,424.2
			c-14.3,30.6-34.2,50.9-59.6,60.8c-25.4,9.9-54.2,7.4-86.2-7.6c-32.1-15-52.4-35.4-60.9-61.2c-8.5-25.8-5.6-54,8.7-84.7l51.5-110.1
			c3.5-7.5,8.9-12.6,16.2-15.4s14.7-2.4,22.2,1.1c7.5,3.5,12.5,8.9,15.1,16.3c2.5,7.4,2.1,14.8-1.5,22.3L370,355.9
			c-8.3,17.6-10.5,32.5-6.7,44.7c3.8,12.2,13.5,21.9,29.1,29.2c15.9,7.4,29.7,8.7,41.5,3.8c11.8-4.9,21.8-16.1,30.1-33.7l51.5-110.1
			c3.5-7.5,8.9-12.6,16.2-15.4C539,271.7,546.4,272.1,553.9,275.6z"/>
	</g>
</g>
</svg>
